<?xml version="1.0" encoding="UTF-8"?>
<svg width="809px" height="755px" viewBox="0 0 809 755" version="1.1" xmlns="http://www.w3.org/2000/svg" xmlns:xlink="http://www.w3.org/1999/xlink">
    <title>Layer_1</title>
    <g id="Page-1" stroke="none" stroke-width="1" fill="none" fill-rule="evenodd">
        <g id="Group" transform="translate(-8, -36)" fill-rule="nonzero">
            <g id="Layer_1" transform="translate(412.5, 413.5) rotate(-30) translate(-412.5, -413.5)translate(90, 164)">
                <path d="M322.5,371.948664 C173.689286,371.948664 35.5408163,283.102805 0.175510204,205.285783 C8.35867347,339.587153 76.1933673,499 322.5,499 C569.157653,499 638.001531,330.974992 645,200.035002 C610.336735,278.313389 471.946939,371.948664 322.5,371.948664 Z" id="Path" fill="#EAAB57"></path>
                <path d="M548.666837,57.1214723 C488.093878,20.3000925 407.77602,0 322.5,0 C237.22398,0 156.906122,20.2781227 96.3331633,57.1214723 C34.2244898,94.8875534 -2.76084376e-14,145.637785 -2.76084376e-14,200.035002 C-2.76084376e-14,293.758156 150.697449,375.969137 322.5,375.969137 C494.302551,375.969137 645,293.758156 645,200.035002 C645,145.637785 610.77551,94.8875534 548.666837,57.1214723 Z" id="Path" fill="#E2E26A"></path>
                <path d="M549.873469,101.632281 C546.369234,96.4118561 540.756618,92.9913482 534.516327,92.2731475 C523.832143,90.9329899 494.456122,92.2731475 473.087755,80.9147625 C451.719388,69.5563774 352.907143,37.4585039 229.369898,72.1268437 C105.832653,106.795183 50.4591837,176.527319 79.1331633,233.363184 C107.807143,290.199049 211.994388,332.227271 319.494388,325.636332 C426.994388,319.045393 581.245918,247.643552 538.509184,162.268921 C538.509184,162.268921 531.159694,139.749879 543.840306,126.370273 C556.520918,112.990666 549.873469,101.632281 549.873469,101.632281 L549.873469,101.632281 Z" id="Path" fill="#FFF3C2"></path>
                <path d="M152.584184,177.713688 C147.09949,183.601594 141.285714,192.147845 144.686224,199.551666 C152.693878,216.951746 177.265306,217.632809 187.466837,217.127504 C189.933475,216.997261 192.363141,216.470584 194.662755,215.567648 L442.965816,118.900542 C419.688776,110.859596 393.822959,107.43227 367.342857,107.43227 C278.315306,107.388368 182.091837,146.055211 152.584184,177.713688 L152.584184,177.713688 Z" id="Path" fill="#E29B3F"></path>
                <path d="M465.869898,137.069564 L217.961735,234.307885 C212.628309,236.334669 209.244241,241.614146 209.625,247.314005 C209.887981,251.695833 211.411888,255.907764 214.012755,259.441333 C221.340306,269.217893 299.332653,289.715713 401.304082,249.423106 C468.217347,223.059349 480.283673,189.928895 481.665816,172.528816 C482.828571,155.590103 474.711224,142.671862 465.869898,137.069564 L465.869898,137.069564 Z" id="Path" fill="#E29B3F"></path>
                <g id="Group" transform="translate(221.7527, 122.7708)" fill="#FFE2B0">
                    <path d="M7.90237454,31.742803 C6.5843767,31.8405941 5.44432657,32.6989867 4.98451739,33.9397827 C1.47431331,40.8163292 -3.39609485,53.2512343 3.44880311,59.3148983 C5.96690689,61.6323648 9.83784218,61.6323648 12.355946,59.3148983 C19.2008439,53.2732041 14.3304358,40.838299 10.8202317,33.9397827 C10.3604225,32.6989867 9.22037238,31.8405941 7.90237454,31.742803 L7.90237454,31.742803 Z" id="Path"></path>
                    <path d="M87.8253337,97.4984055 C86.5073359,97.5961966 85.3672858,98.4545892 84.9074766,99.6953852 C81.3972725,106.571932 76.5268643,119.006837 83.3717623,125.070501 C85.8898661,127.387967 89.7608014,127.387967 92.2789051,125.070501 C99.1238031,119.028807 94.2533949,106.593901 90.7431909,99.6953852 C90.2833817,98.4545892 89.1433316,97.5961966 87.8253337,97.4984055 Z" id="Path"></path>
                    <path d="M52.8549256,13.7934788 C51.7974911,14.5516693 51.2685084,15.8503641 51.4947215,17.132888 C52.1748235,24.8223169 54.6319664,37.9602556 63.6488031,39.4542018 C67.0138658,40.0777652 70.2946556,38.0148215 71.1957419,34.7087256 C73.7845174,25.9208068 63.0783949,17.9897101 56.4528847,14.0351466 C55.4003482,13.266803 54.0004982,13.1727779 52.8549256,13.7934788 L52.8549256,13.7934788 Z" id="Path"></path>
                    <path d="M137.494721,81.7900006 C136.437287,82.5481911 135.908304,83.8468859 136.134517,85.1294098 C136.814619,92.8188387 139.271762,105.956777 148.288599,107.450724 C151.653662,108.074287 154.934452,106.011343 155.835538,102.705247 C158.424313,93.9173286 147.718191,85.9862319 141.092681,82.0316684 C140.040144,81.2633249 138.640294,81.1692997 137.494721,81.7900006 L137.494721,81.7900006 Z" id="Path"></path>
                    <path d="M94.8238031,1.51236228 C94.2039786,2.65955473 94.297871,4.06138416 95.0651296,5.11540899 C99.0579868,11.7063481 107.043701,22.4276091 115.775334,19.7912334 C119.128088,18.8768926 121.193414,15.5099799 120.49217,12.1018044 C118.978395,3.09418767 105.837068,0.677509993 98.158497,0.0403858789 C96.8553126,-0.1628132 95.553186,0.411962077 94.8238031,1.51236228 Z" id="Path"></path>
                    <path d="M179.946252,62.3687001 C179.326428,63.5158925 179.42032,64.9177219 180.187579,65.9717468 C184.180436,72.5626859 192.16615,83.2839468 200.897783,80.6475712 C204.191462,79.7261764 206.231748,76.4322785 205.592681,73.0679912 C204.078905,64.0603744 190.937579,61.6436968 183.259007,61.0065726 C181.985519,60.7890175 180.699631,61.3177446 179.946252,62.3687001 L179.946252,62.3687001 Z" id="Path"></path>
                </g>
            </g>
        </g>
    </g>
</svg>